<?xml version="1.0" encoding="UTF-8"?>
<svg version="1.1" xmlns="http://www.w3.org/2000/svg" width="512" height="512">
<path d="M0 0 C168.96 0 337.92 0 512 0 C512 168.96 512 337.92 512 512 C343.04 512 174.08 512 0 512 C0 343.04 0 174.08 0 0 Z " fill="#000000" transform="translate(0,0)"/>
<path d="M0 0 C4.55978471 1.49431147 7.94733228 4.07880854 11.625 7.0625 C12.24109131 7.55564697 12.85718262 8.04879395 13.49194336 8.55688477 C14.74446244 9.56146049 15.99473296 10.56884656 17.24267578 11.57910156 C18.7890726 12.82945298 20.34498172 14.06802048 21.90234375 15.3046875 C29.25411124 21.19905615 36.16569851 27.5207573 43 34 C43.75410156 34.7115625 44.50820313 35.423125 45.28515625 36.15625 C50.67312092 41.38353978 55.34707236 47.11814297 60 53 C60.81726563 54.01191406 61.63453125 55.02382812 62.4765625 56.06640625 C68.76713951 63.94548816 74.10875725 72.18817626 79 81 C79.34804688 81.62213379 79.69609375 82.24426758 80.0546875 82.88525391 C88.6336643 98.4427123 94.31661734 115.43994389 97 133 C97.13019531 133.82757813 97.26039063 134.65515625 97.39453125 135.5078125 C99.60412871 152.88997921 98.64423408 172.61537579 92.453125 189.125 C91.75575013 192.01068911 92.5020814 194.1580161 93.99633789 196.68481445 C94.40102295 197.2387085 94.80570801 197.79260254 95.22265625 198.36328125 C95.67495605 198.99500244 96.12725586 199.62672363 96.59326172 200.27758789 C97.07811035 200.94910889 97.56295898 201.62062988 98.0625 202.3125 C109.46776097 218.56675982 118.13080966 235.56504121 118.25 255.8125 C118.2809375 257.10897461 118.2809375 257.10897461 118.3125 258.43164062 C118.34804239 264.31834971 117.37891814 268.60987232 115 274 C110 269 110 269 107.6875 266.625 C101.23990209 260.32734623 95.33195437 255.61334756 87 252 C86.05125 251.5875 85.1025 251.175 84.125 250.75 C66.3890875 246.493381 53.19048157 252.5390669 37.5703125 260.2734375 C-2.42373628 280.04744675 -46.52814464 279.59569028 -88.46923828 265.86376953 C-123.52322509 253.8995591 -157.20707434 232.72253817 -181 204 C-181.89561256 202.95312235 -182.7928914 201.90766898 -183.69140625 200.86328125 C-197 185.3544225 -197 185.3544225 -197 182 C-193.28355114 183.40930852 -189.83892119 185.08692034 -186.34375 186.9765625 C-142.56053457 210.36521133 -93.70883555 223.70341536 -44.5625 209.25 C-36.0014271 206.60853909 -27.96479517 203.07894055 -20 199 C-23.41355473 196.23458857 -26.89349837 193.59532991 -30.4375 191 C-44.135478 180.69304174 -56.26879375 169.02485252 -68.33422852 156.87158203 C-70.95204036 154.23535736 -73.5779232 151.60737949 -76.20507812 148.98046875 C-77.89630793 147.28432726 -79.5870796 145.5877288 -81.27734375 143.890625 C-82.05037338 143.11648254 -82.82340302 142.34234009 -83.61985779 141.54473877 C-87.73400759 137.39488237 -91.69650559 133.16544507 -95.50456238 128.73231506 C-97.72953761 126.15490358 -100.05423743 123.67900937 -102.375 121.1875 C-106.69969833 116.51225082 -110.75961671 111.67744591 -114.75390625 106.71484375 C-117.0883059 103.89326505 -119.51990598 101.19409288 -122 98.5 C-126.03954818 94.10621452 -129.84679619 89.58161176 -133.59375 84.9375 C-136.29779335 81.63646007 -139.08127908 78.41249936 -141.875 75.1875 C-149.99539754 65.78240994 -157.60928583 55.98745159 -165 46 C-162.121582 47.3314565 -159.80803749 48.83298322 -157.3828125 50.87109375 C-156.700979 51.43957031 -156.01914551 52.00804687 -155.31665039 52.59375 C-154.59340576 53.2021875 -153.87016113 53.810625 -153.125 54.4375 C-151.58562984 55.71864372 -150.04525245 56.9985781 -148.50390625 58.27734375 C-147.35752686 59.22843018 -147.35752686 59.22843018 -146.18798828 60.19873047 C-141.48545874 64.07010549 -136.67859743 67.80742733 -131.86914062 71.54443359 C-129.84053523 73.1241809 -127.81852574 74.712145 -125.796875 76.30078125 C-102.82334993 94.31635552 -79.23076791 111.65950291 -54.375 127 C-53.579729 127.4937915 -52.78445801 127.98758301 -51.96508789 128.49633789 C-51.22121826 128.95129639 -50.47734863 129.40625488 -49.7109375 129.875 C-49.04368652 130.28492188 -48.37643555 130.69484375 -47.68896484 131.1171875 C-46.02221591 132.15441045 -46.02221591 132.15441045 -44 132 C-46.51036242 129.4806075 -49.02868447 126.97209784 -51.578125 124.4921875 C-57.87251027 118.32663468 -63.51380939 111.9062496 -69 105 C-69.99535119 103.78087987 -70.99287872 102.56353447 -71.9921875 101.34765625 C-79.88729247 91.73210033 -87.50595583 81.93035324 -95 72 C-95.60102539 71.2054541 -96.20205078 70.4109082 -96.82128906 69.59228516 C-101.23991938 63.74721321 -105.63021195 57.88166429 -110 52 C-110.63663574 51.1450293 -111.27327148 50.29005859 -111.92919922 49.40917969 C-113.77386374 46.9247989 -115.60750263 44.43269736 -117.4375 41.9375 C-117.99953125 41.18154541 -118.5615625 40.42559082 -119.140625 39.64672852 C-119.64980469 38.94733154 -120.15898437 38.24793457 -120.68359375 37.52734375 C-121.13275146 36.91624756 -121.58190918 36.30515137 -122.04467773 35.67553711 C-123 34 -123 34 -123 31 C-122.443125 31.56847656 -121.88625 32.13695312 -121.3125 32.72265625 C-116.37932614 37.71416156 -111.33936545 42.45000918 -106 47 C-104.9240369 47.92787282 -103.84855654 48.85630557 -102.7734375 49.78515625 C-95.60424592 55.96929079 -88.35353834 62.03557128 -81 68 C-79.77424947 69.00721634 -78.54902308 70.01507076 -77.32421875 71.0234375 C-70.05127832 76.99558523 -62.69304751 82.8062137 -55.13525391 88.41381836 C-50.09275627 92.15993569 -45.13139117 95.99994226 -40.1875 99.875 C-30.93246809 107.11104241 -21.49955095 114.08926399 -12 121 C-11.23655273 121.55574707 -10.47310547 122.11149414 -9.68652344 122.68408203 C-1.32950678 128.76012893 7.06679768 134.78014739 15.5 140.75 C16.22461426 141.26385254 16.94922852 141.77770508 17.69580078 142.30712891 C21.23243854 144.84103585 21.23243854 144.84103585 25 147 C37.59143711 100.08571148 31.85216448 55.45778632 8 13 C5.92761359 9.58200444 3.7077535 6.28269516 1.3984375 3.01953125 C0 1 0 1 0 0 Z " fill="#FFFFFF" transform="translate(297,120)"/>
</svg>
